<?xml version="1.0" encoding="UTF-8"?>
<!DOCTYPE svg PUBLIC "-//W3C//DTD SVG 1.1//EN" "http://www.w3.org/Graphics/SVG/1.1/DTD/svg11.dtd">
<!-- Creator: CorelDRAW -->
<svg xmlns="http://www.w3.org/2000/svg" xml:space="preserve" width="15.9476mm" height="15.9476mm" version="1.1" style="shape-rendering:geometricPrecision; text-rendering:geometricPrecision; image-rendering:optimizeQuality; fill-rule:evenodd; clip-rule:evenodd"
viewBox="0 0 1524.77 1524.77"
 xmlns:xlink="http://www.w3.org/1999/xlink"
 xmlns:xodm="http://www.corel.com/coreldraw/odm/2003">
 <defs>
  <style type="text/css">
   <![CDATA[
    .str1 {stroke:#2B2A29;stroke-width:47.81;stroke-miterlimit:22.9256}
    .str0 {stroke:#2B2A29;stroke-width:47.81;stroke-linejoin:round;stroke-miterlimit:22.9256}
    .fil0 {fill:none}
   ]]>
  </style>
 </defs>
 <g id="Ebene_x0020_2">
  <metadata id="CorelCorpID_0Corel-Layer"/>
  <polygon class="fil0 str0" points="762.39,520.11 838.81,682.78 1017.14,705.2 886.05,828.15 919.83,1004.68 762.39,917.99 604.94,1004.68 638.72,828.15 507.63,705.2 685.96,682.78 "/>
  <g id="_2302187231552">
   <path class="fil0 str1" d="M64.38 1329.11l34.88 -34.87c8.38,-8.39 22.06,-8.39 30.43,0l135.04 135.03c8.38,8.38 8.38,22.06 0,30.44l-34.88 34.87c-8.38,8.38 -22.06,8.38 -30.43,0l-135.04 -135.04c-8.38,-8.38 -8.38,-22.06 0,-30.43z"/>
   <path class="fil0 str1" d="M458.5 1264.24l-118.11 118.11c-8.63,8.64 -23.19,8.77 -31.82,0.12l-155.17 -155.17c-20.13,-20.13 -12.83,-56.93 -12.19,-104.68 0.3,-22.77 4.94,-39.62 -2.31,-61.2 -8.32,-24.76 -68.09,-43.84 -43.53,-75.28 22.75,-29.1 50.72,-10.86 72.73,1.54 24.64,13.88 45.33,34.29 49.89,68.82 2.8,21.21 8.86,65.07 22.03,51.74l67.25 -68.19 27.41 -27.4c13.59,-13.6 35.83,-13.6 49.42,0l0 0c13.59,13.59 13.59,35.83 0.63,48.78 13.54,-13.53 34.61,-13.53 47.5,-0.64l0.01 0c12.89,12.89 12.89,33.97 0,46.86l-7.55 7.55c12.81,-12.82 33.78,-12.82 46.6,0l0 0c12.81,12.82 12.81,33.79 0,46.6l-10.32 10.32c12.3,-12.29 32.4,-12.29 44.69,0l0.01 0.01c12.29,12.29 12.26,32.36 0,44.69l-47.17 47.43"/>
  </g>
  <g id="_2302187235152">
   <path class="fil0 str1" d="M195.66 64.38l34.87 34.88c8.39,8.38 8.39,22.06 0,30.43l-135.03 135.04c-8.38,8.38 -22.06,8.38 -30.44,0l-34.87 -34.88c-8.38,-8.38 -8.38,-22.06 0,-30.43l135.04 -135.04c8.38,-8.38 22.06,-8.38 30.43,0z"/>
   <path class="fil0 str1" d="M260.53 458.5l-118.11 -118.11c-8.64,-8.63 -8.77,-23.19 -0.12,-31.82l155.17 -155.17c20.13,-20.13 56.93,-12.83 104.68,-12.19 22.77,0.3 39.62,4.94 61.2,-2.31 24.76,-8.32 43.84,-68.09 75.28,-43.53 29.1,22.75 10.86,50.72 -1.54,72.73 -13.88,24.64 -34.29,45.33 -68.82,49.89 -21.21,2.8 -65.07,8.86 -51.74,22.03l68.19 67.25 27.4 27.41c13.6,13.59 13.6,35.83 0,49.42l0 0c-13.59,13.59 -35.83,13.59 -48.78,0.63 13.53,13.54 13.53,34.61 0.64,47.5l0 0.01c-12.89,12.89 -33.97,12.89 -46.86,0l-7.55 -7.55c12.82,12.81 12.82,33.78 0,46.6l0 0c-12.82,12.81 -33.79,12.81 -46.6,0l-10.32 -10.32c12.29,12.3 12.29,32.4 0,44.69l-0.01 0.01c-12.29,12.29 -32.36,12.26 -44.69,0l-47.43 -47.17"/>
  </g>
  <g id="_2302187235008">
   <path class="fil0 str1" d="M1460.4 195.66l-34.88 34.87c-8.38,8.39 -22.06,8.39 -30.43,0l-135.04 -135.03c-8.38,-8.38 -8.38,-22.06 0,-30.44l34.88 -34.87c8.38,-8.38 22.06,-8.38 30.43,0l135.04 135.04c8.38,8.38 8.38,22.06 0,30.43z"/>
   <path class="fil0 str1" d="M1066.27 260.53l118.11 -118.11c8.63,-8.64 23.19,-8.77 31.82,-0.12l155.17 155.17c20.13,20.13 12.83,56.93 12.19,104.68 -0.3,22.77 -4.94,39.62 2.31,61.2 8.32,24.76 68.09,43.84 43.53,75.28 -22.75,29.1 -50.72,10.86 -72.73,-1.54 -24.64,-13.88 -45.33,-34.29 -49.89,-68.82 -2.8,-21.21 -8.86,-65.07 -22.03,-51.74l-67.25 68.19 -27.41 27.4c-13.59,13.6 -35.83,13.6 -49.42,0l0 0c-13.59,-13.59 -13.59,-35.83 -0.63,-48.78 -13.54,13.53 -34.61,13.53 -47.5,0.64l-0.01 0c-12.89,-12.89 -12.89,-33.97 0,-46.86l7.55 -7.55c-12.81,12.82 -33.78,12.82 -46.6,0l0 0c-12.81,-12.82 -12.81,-33.79 0,-46.6l10.32 -10.32c-12.3,12.29 -32.4,12.29 -44.69,0l-0.01 -0.01c-12.29,-12.29 -12.26,-32.36 0,-44.69l47.17 -47.43"/>
  </g>
  <g id="_2302187232944">
   <path class="fil0 str1" d="M1329.11 1460.4l-34.87 -34.88c-8.39,-8.38 -8.39,-22.06 0,-30.43l135.03 -135.04c8.38,-8.38 22.06,-8.38 30.44,0l34.87 34.88c8.38,8.38 8.38,22.06 0,30.43l-135.04 135.04c-8.38,8.38 -22.06,8.38 -30.43,0z"/>
   <path class="fil0 str1" d="M1264.24 1066.27l118.11 118.11c8.64,8.63 8.77,23.19 0.12,31.82l-155.17 155.17c-20.13,20.13 -56.93,12.83 -104.68,12.19 -22.77,-0.3 -39.62,-4.94 -61.2,2.31 -24.76,8.32 -43.84,68.09 -75.28,43.53 -29.1,-22.75 -10.86,-50.72 1.54,-72.73 13.88,-24.64 34.29,-45.33 68.82,-49.89 21.21,-2.8 65.07,-8.86 51.74,-22.03l-68.19 -67.25 -27.4 -27.41c-13.6,-13.59 -13.6,-35.83 0,-49.42l0 0c13.59,-13.59 35.83,-13.59 48.78,-0.63 -13.53,-13.54 -13.53,-34.61 -0.64,-47.5l0 -0.01c12.89,-12.89 33.97,-12.89 46.86,0l7.55 7.55c-12.82,-12.81 -12.82,-33.78 0,-46.6l0 0c12.82,-12.81 33.79,-12.81 46.6,0l10.32 10.32c-12.29,-12.3 -12.29,-32.4 0,-44.69l0.01 -0.01c12.29,-12.29 32.36,-12.26 44.69,0l47.43 47.17"/>
  </g>
 </g>
</svg>
