<?xml version="1.0" encoding="UTF-8"?>
<!DOCTYPE svg PUBLIC "-//W3C//DTD SVG 1.1//EN" "http://www.w3.org/Graphics/SVG/1.1/DTD/svg11.dtd">
<!-- Creator: CorelDRAW -->
<svg xmlns="http://www.w3.org/2000/svg" xml:space="preserve" width="17.9291mm" height="16.453mm" version="1.1" style="shape-rendering:geometricPrecision; text-rendering:geometricPrecision; image-rendering:optimizeQuality; fill-rule:evenodd; clip-rule:evenodd"
viewBox="0 0 1050.89 964.37"
 xmlns:xlink="http://www.w3.org/1999/xlink"
 xmlns:xodm="http://www.corel.com/coreldraw/odm/2003">
 <defs>
  <style type="text/css">
   <![CDATA[
    .str0 {stroke:#2B2A29;stroke-width:29.31;stroke-miterlimit:22.9256}
    .fil0 {fill:none}
   ]]>
  </style>
 </defs>
 <g id="Ebene_x0020_2">
  <metadata id="CorelCorpID_0Corel-Layer"/>
  <g id="_2301987106576">
   <path class="fil0 str0" d="M438.8 741.8c-100.26,-6.86 -144.36,64.93 -137.74,207.71l441.65 -6.56c7.52,-167.42 -55.29,-206.14 -139.2,-206.25l-83.81 81.63 -80.9 -76.53z"/>
   <path class="fil0 str0" d="M624.45 657.99l-0.19 -169.02 -155.36 0c-29.79,0 -54.15,24.37 -54.15,54.15l0 114.87c0,57.96 46.98,104.95 104.95,104.95 57.96,0 104.95,-46.98 104.75,-104.95z"/>
   <path class="fil0 str0" d="M414.75 592.6l171.62 0c20.84,0 37.89,-17.05 37.89,-37.89l0 -63.53c0,-0.47 -0.38,-0.85 -0.85,-0.85"/>
  </g>
  <g id="_2301987108736">
   <path class="fil0 str0" d="M739.6 867.98l296.18 -4.4c5.79,-128.74 -42.52,-158.53 -107.05,-158.61l-64.46 62.77 -62.21 -58.85c-50.84,-3.48 -82.9,19.32 -97.38,66.73"/>
   <path class="fil0 str0" d="M944.83 644.44l-0.15 -129.99 -119.47 0c-22.91,0 -41.65,18.74 -41.65,41.65l0 88.34c0,44.57 36.14,80.71 80.71,80.71 44.58,0 80.71,-36.14 80.56,-80.71z"/>
   <path class="fil0 str0" d="M783.57 594.15l131.98 0c16.03,0 29.14,-13.11 29.14,-29.14l0 -48.86c0,-0.36 -0.29,-0.65 -0.65,-0.65"/>
  </g>
  <g id="_2301987110848">
   <path class="fil0 str0" d="M345.67 770.22c-16.65,-51.02 -53.43,-65.2 -97.93,-65.25l-64.46 62.77 -62.21 -58.85c-77.11,-5.28 -111.02,49.93 -105.93,159.73l291.25 -4.33"/>
   <path class="fil0 str0" d="M263.84 644.44l-0.15 -129.99 -119.47 0c-22.91,0 -41.65,18.74 -41.65,41.65l0 88.34c0,44.57 36.14,80.71 80.71,80.71 44.58,0 80.71,-36.14 80.56,-80.71z"/>
   <path class="fil0 str0" d="M102.58 594.15l131.98 0c16.03,0 29.14,-13.11 29.14,-29.14l0 -48.86c0,-0.36 -0.29,-0.65 -0.65,-0.65"/>
  </g>
  <polygon class="fil0 str0" points="522.34,47.7 565.73,182.12 706.97,181.85 592.54,264.65 636.45,398.91 522.34,315.66 408.22,398.91 452.13,264.65 337.7,181.85 478.94,182.12 "/>
 </g>
</svg>
