<?xml version="1.0" encoding="UTF-8"?>
<!DOCTYPE svg PUBLIC "-//W3C//DTD SVG 1.1//EN" "http://www.w3.org/Graphics/SVG/1.1/DTD/svg11.dtd">
<!-- Creator: CorelDRAW -->
<svg xmlns="http://www.w3.org/2000/svg" xml:space="preserve" width="10.6003mm" height="15.2415mm" version="1.1" style="shape-rendering:geometricPrecision; text-rendering:geometricPrecision; image-rendering:optimizeQuality; fill-rule:evenodd; clip-rule:evenodd"
viewBox="0 0 163.36 234.89"
 xmlns:xlink="http://www.w3.org/1999/xlink"
 xmlns:xodm="http://www.corel.com/coreldraw/odm/2003">
 <defs>
  <style type="text/css">
   <![CDATA[
    .str0 {stroke:#2B2A29;stroke-width:7.71;stroke-miterlimit:22.9256}
    .fil0 {fill:#FEFEFE;fill-rule:nonzero}
   ]]>
  </style>
 </defs>
 <g id="Ebene_x0020_2">
  <metadata id="CorelCorpID_0Corel-Layer"/>
  <path class="fil0 str0" d="M77.5 160.29c9.48,0 17.62,3.57 24.36,10.65 6.75,6.97 10.09,15.11 10.09,24.47 0,9.7 -3.46,18.06 -10.42,25.09 -6.97,7.02 -15.28,10.53 -24.98,10.53 -9.48,0 -17.62,-3.23 -24.36,-9.64 -7.3,-6.97 -10.93,-15.56 -10.93,-25.81 0,-9.48 3.23,-17.45 9.65,-23.97 7.19,-7.53 16.06,-11.32 26.59,-11.32zm3.62 -156.43c12.21,0 24.53,2.62 37.07,7.86 12.93,5.41 23.14,13.05 30.55,22.86 7.19,9.37 10.76,19.45 10.76,30.38 0,12.6 -5.18,23.25 -15.5,31.83 -2.73,2.29 -10.76,6.69 -24.03,13.21 -4.79,2.4 -8.36,4.74 -10.7,6.97 -2.34,2.23 -4.35,5.18 -6.13,8.86 -3.68,8.08 -6.97,13.16 -9.81,15.28 -2.79,2.12 -7.64,3.18 -14.49,3.18 -6.52,0 -11.71,-1.9 -15.56,-5.69 -3.79,-3.85 -5.69,-9.03 -5.69,-15.66 0,-6.02 1.45,-12.38 4.41,-19.12 0.78,-1.62 4.96,-8.19 12.6,-19.62 7.08,-10.65 10.59,-20.68 10.59,-30.05 0,-4.68 -1.06,-8.53 -3.18,-11.48 -2.12,-3.01 -4.85,-4.52 -8.08,-4.52 -3.4,0 -5.8,1.06 -7.19,3.18 -1.39,2.12 -2.45,6.13 -3.12,12.04 -1.06,11.1 -4.74,19.51 -10.93,25.31 -6.19,5.85 -14.33,8.81 -24.36,8.81 -6.97,0 -12.6,-1.95 -16.95,-5.91 -5.02,-4.46 -7.53,-10.15 -7.53,-17.12 0,-10.59 3.62,-20.85 10.87,-30.77 7.25,-9.98 16.5,-17.34 27.82,-22.13 11.99,-5.13 24.86,-7.69 38.58,-7.69z"/>
 </g>
</svg>
