<?xml version="1.0" encoding="UTF-8"?>
<!DOCTYPE svg PUBLIC "-//W3C//DTD SVG 1.1//EN" "http://www.w3.org/Graphics/SVG/1.1/DTD/svg11.dtd">
<!-- Creator: CorelDRAW -->
<svg xmlns="http://www.w3.org/2000/svg" xml:space="preserve" width="16.1565mm" height="15.6681mm" version="1.1" style="shape-rendering:geometricPrecision; text-rendering:geometricPrecision; image-rendering:optimizeQuality; fill-rule:evenodd; clip-rule:evenodd"
viewBox="0 0 1494.31 1449.14"
 xmlns:xlink="http://www.w3.org/1999/xlink"
 xmlns:xodm="http://www.corel.com/coreldraw/odm/2003">
 <defs>
  <style type="text/css">
   <![CDATA[
    .str0 {stroke:#2B2A29;stroke-width:46.24;stroke-miterlimit:22.9256}
    .fil0 {fill:none}
   ]]>
  </style>
 </defs>
 <g id="Ebene_x0020_2">
  <metadata id="CorelCorpID_0Corel-Layer"/>
  <g id="_2301803006096">
   <path class="fil0 str0" d="M168.47 748.49c-105.32,-7.2 -151.62,68.19 -144.67,218.16l463.86 -6.89c7.9,-175.83 -58.07,-216.51 -146.2,-216.62l-88.02 85.73 -84.96 -80.37z"/>
   <path class="fil0 str0" d="M363.45 660.47l-0.2 -177.53 -163.16 0c-31.29,0 -56.88,25.6 -56.88,56.88l0 120.64c0,60.88 49.35,110.23 110.23,110.23 60.87,0 110.22,-49.35 110.02,-110.23z"/>
   <path class="fil0 str0" d="M143.2 591.79l180.25 0c21.89,0 39.79,-17.9 39.79,-39.79l0 -66.73c0,-0.49 -0.4,-0.89 -0.89,-0.89"/>
  </g>
  <g id="_2301803005616">
   <path class="fil0 str0" d="M635.75 288.67c-105.32,-7.2 -151.62,68.19 -144.67,218.16l463.86 -6.89c7.9,-175.83 -58.07,-216.51 -146.2,-216.62l-88.02 85.73 -84.96 -80.37z"/>
   <path class="fil0 str0" d="M830.73 200.65l-0.2 -177.53 -163.16 0c-31.29,0 -56.88,25.6 -56.88,56.88l0 120.64c0,60.88 49.35,110.23 110.23,110.23 60.87,0 110.22,-49.35 110.02,-110.23z"/>
   <path class="fil0 str0" d="M610.48 131.96l180.25 0c21.89,0 39.79,-17.9 39.79,-39.79l0 -66.73c0,-0.49 -0.4,-0.89 -0.89,-0.89"/>
  </g>
  <g id="_2301803006432">
   <path class="fil0 str0" d="M1151.38 758.17c-105.32,-7.2 -151.62,68.19 -144.67,218.16l463.86 -6.89c7.9,-175.83 -58.07,-216.51 -146.2,-216.62l-88.02 85.73 -84.96 -80.37z"/>
   <path class="fil0 str0" d="M1346.36 670.14l-0.2 -177.53 -163.16 0c-31.29,0 -56.88,25.6 -56.88,56.88l0 120.64c0,60.88 49.35,110.23 110.23,110.23 60.87,0 110.22,-49.35 110.02,-110.23z"/>
   <path class="fil0 str0" d="M1126.11 601.46l180.25 0c21.89,0 39.79,-17.9 39.79,-39.79l0 -66.73c0,-0.49 -0.4,-0.89 -0.89,-0.89"/>
  </g>
  <g id="_2301803009312">
   <path class="fil0 str0" d="M651.69 1207.53c-105.32,-7.2 -151.62,68.19 -144.67,218.16l463.86 -6.89c7.9,-175.83 -58.07,-216.51 -146.2,-216.62l-88.02 85.73 -84.96 -80.37z"/>
   <path class="fil0 str0" d="M846.67 1119.51l-0.2 -177.53 -163.16 0c-31.29,0 -56.88,25.6 -56.88,56.88l0 120.64c0,60.88 49.35,110.23 110.23,110.23 60.87,0 110.22,-49.35 110.02,-110.23z"/>
   <path class="fil0 str0" d="M626.42 1050.82l180.25 0c21.89,0 39.79,-17.9 39.79,-39.79l0 -66.73c0,-0.49 -0.4,-0.89 -0.89,-0.89"/>
  </g>
  <path class="fil0 str0" d="M246.23 427.83c74.47,-108.31 184.42,-190.34 313.08,-229.3m326.05 -4.08c142.72,39.31 263.62,131.28 340.51,253.66m24.98 578.69c-52.28,101.74 -133.47,186.19 -232.7,242.51m-554.71 12.28c-106.08,-54.13 -193.49,-139.63 -249.97,-244.27"/>
 </g>
</svg>
