<?xml version="1.0" encoding="UTF-8"?>
<!DOCTYPE svg PUBLIC "-//W3C//DTD SVG 1.1//EN" "http://www.w3.org/Graphics/SVG/1.1/DTD/svg11.dtd">
<!-- Creator: CorelDRAW -->
<svg xmlns="http://www.w3.org/2000/svg" xml:space="preserve" width="17.2548mm" height="16.4347mm" version="1.1" style="shape-rendering:geometricPrecision; text-rendering:geometricPrecision; image-rendering:optimizeQuality; fill-rule:evenodd; clip-rule:evenodd"
viewBox="0 0 1023.46 974.81"
 xmlns:xlink="http://www.w3.org/1999/xlink"
 xmlns:xodm="http://www.corel.com/coreldraw/odm/2003">
 <defs>
  <style type="text/css">
   <![CDATA[
    .str0 {stroke:#2B2A29;stroke-width:29.66;stroke-miterlimit:22.9256}
    .str1 {stroke:#2B2A29;stroke-width:29.66;stroke-linejoin:round;stroke-miterlimit:22.9256}
    .fil0 {fill:none}
   ]]>
  </style>
 </defs>
 <g id="Ebene_x0020_2">
  <metadata id="CorelCorpID_0Corel-Layer"/>
  <g id="_2301993442240">
   <path class="fil0 str0" d="M430.68 548.07c-94.55,-6.47 -136.13,61.22 -129.89,195.87l416.47 -6.19c7.09,-157.87 -52.14,-194.39 -131.26,-194.49l-79.04 76.97 -76.28 -72.16z"/>
   <path class="fil0 str0" d="M605.75 469.04l-0.18 -159.39 -146.49 0c-28.09,0 -51.07,22.98 -51.07,51.07l0 108.32c0,54.66 44.31,98.97 98.97,98.97 54.66,0 98.97,-44.31 98.78,-98.97z"/>
   <path class="fil0 str0" d="M408 407.38l161.84 0c19.65,0 35.73,-16.07 35.73,-35.73l0 -59.91c0,-0.44 -0.36,-0.81 -0.81,-0.81"/>
  </g>
  <polygon class="fil0 str1" points="511.73,14.83 685.64,297.92 1008.63,375.85 793.13,628.73 818.83,959.99 511.73,833.18 204.63,959.99 230.33,628.73 14.83,375.85 337.81,297.92 "/>
 </g>
</svg>
