<svg id="Ebene_1" data-name="Ebene 1" xmlns="http://www.w3.org/2000/svg" xmlns:xlink="http://www.w3.org/1999/xlink" viewBox="0 0 121.46 48"><defs><style>.cls-1{fill:#fff;}.cls-2{fill:url(#Unbenannter_Verlauf_2);}.cls-3{fill:url(#Unbenannter_Verlauf_2-2);}.cls-4{fill:url(#Unbenannter_Verlauf_2-3);}.cls-5{fill:url(#Unbenannter_Verlauf_2-4);}</style><linearGradient id="Unbenannter_Verlauf_2" x1="9.99" y1="-0.07" x2="9.99" y2="47.23" gradientUnits="userSpaceOnUse"><stop offset="0" stop-color="#5ac3e6"/><stop offset="1" stop-color="#584998"/></linearGradient><linearGradient id="Unbenannter_Verlauf_2-2" x1="28.67" y1="0.07" x2="28.67" y2="47.36" xlink:href="#Unbenannter_Verlauf_2"/><linearGradient id="Unbenannter_Verlauf_2-3" x1="28.67" y1="-0.07" x2="28.67" y2="47.23" xlink:href="#Unbenannter_Verlauf_2"/><linearGradient id="Unbenannter_Verlauf_2-4" x1="19.33" y1="0.59" x2="19.33" y2="47.88" xlink:href="#Unbenannter_Verlauf_2"/></defs><path class="cls-1" d="M51.32,31.73A1,1,0,0,1,51,31V17.1a1,1,0,0,1,.3-.73.94.94,0,0,1,.72-.31,1.09,1.09,0,0,1,1.09,1v7.17l7.69-7.85a1,1,0,0,1,1.41-.1.83.83,0,0,1,.28.64,1,1,0,0,1-.25.7l-5.21,5.19,6,7.53a1.07,1.07,0,0,1,.24.66.83.83,0,0,1-.27.69,1,1,0,0,1-.72.3.94.94,0,0,1-.81-.41L55.68,24.2l-2.55,2.6V31a1,1,0,0,1-.33.72,1,1,0,0,1-.75.3A1,1,0,0,1,51.32,31.73Z"/><path class="cls-1" d="M69.41,31.1a7,7,0,0,1-2.75-2.86,9.14,9.14,0,0,1,0-8.39A7,7,0,0,1,69.41,17a8.76,8.76,0,0,1,8.28,0,7.26,7.26,0,0,1,2.76,2.87,9.1,9.1,0,0,1,0,8.37,7.26,7.26,0,0,1-2.76,2.87,8.76,8.76,0,0,1-8.28,0Zm7.28-1.69a5.34,5.34,0,0,0,2-2.21,6.9,6.9,0,0,0,.7-3.16,6.88,6.88,0,0,0-.7-3.15,5.34,5.34,0,0,0-2-2.21,6.49,6.49,0,0,0-6.28,0,5.39,5.39,0,0,0-2,2.21,7.46,7.46,0,0,0,0,6.31,5.39,5.39,0,0,0,2,2.21,6.49,6.49,0,0,0,6.28,0Z"/><path class="cls-1" d="M86.31,31.64a1,1,0,0,1-.3-.74V17.21a1,1,0,0,1,.3-.73,1,1,0,0,1,.73-.3h4.53a8,8,0,0,1,4.37,1.13,7.33,7.33,0,0,1,2.69,3,8.41,8.41,0,0,1,0,7.57,7.38,7.38,0,0,1-2.69,3A8,8,0,0,1,91.57,32H87A1,1,0,0,1,86.31,31.64Zm5-1.66a6.74,6.74,0,0,0,3.24-.74,5.36,5.36,0,0,0,2.17-2.1A6.11,6.11,0,0,0,97.5,24a6.17,6.17,0,0,0-.76-3.1,5.35,5.35,0,0,0-2.17-2.07,6.73,6.73,0,0,0-3.24-.72H88.11V30Z"/><path class="cls-1" d="M104.41,31.64a1,1,0,0,1-.26-.74V17.21a1,1,0,0,1,.26-.73.92.92,0,0,1,.69-.3h9.05a1,1,0,0,1,1,1,1,1,0,0,1-1,1h-8V23h7.21a1,1,0,0,1,.68.32.94.94,0,0,1,.28.7.9.9,0,0,1-.28.68,1,1,0,0,1-.68.28h-7.21v5h8a.91.91,0,0,1,.68.29,1,1,0,0,1-.68,1.69H105.1A.94.94,0,0,1,104.41,31.64Z"/><path class="cls-1" d="M118.63,17.77a1.9,1.9,0,0,1-.69-.69,1.82,1.82,0,0,1-.26-.94,1.8,1.8,0,0,1,.26-.94,1.9,1.9,0,0,1,.69-.69,1.82,1.82,0,0,1,.94-.26,1.86,1.86,0,0,1,1,.26,1.9,1.9,0,0,1,.69.69,1.79,1.79,0,0,1,.25.94,1.81,1.81,0,0,1-.25.94,1.9,1.9,0,0,1-.69.69,1.86,1.86,0,0,1-1,.26A1.82,1.82,0,0,1,118.63,17.77Zm1.75-.23A1.75,1.75,0,0,0,121,17a1.55,1.55,0,0,0,.22-.82,1.48,1.48,0,0,0-.22-.8,1.67,1.67,0,0,0-.59-.59,1.6,1.6,0,0,0-2.2.59,1.48,1.48,0,0,0-.22.8,1.55,1.55,0,0,0,.22.82,1.72,1.72,0,0,0,.58.59,1.67,1.67,0,0,0,1.62,0Zm-1.56-.38a.19.19,0,0,1-.07-.12V15.33c0-.06,0-.1.09-.15a.24.24,0,0,1,.19-.06h.63a1,1,0,0,1,.62.16.58.58,0,0,1,.2.45.45.45,0,0,1-.11.32.73.73,0,0,1-.28.19.47.47,0,0,1,.26.21.77.77,0,0,1,.11.44V17a.17.17,0,0,1-.18.18.22.22,0,0,1-.14-.05.19.19,0,0,1-.07-.13v-.09a1,1,0,0,0,0-.36c0-.11-.14-.14-.3-.14h-.57V17a.14.14,0,0,1-.06.12.17.17,0,0,1-.14.05A.15.15,0,0,1,118.82,17.16Zm.82-1.12A.65.65,0,0,0,120,16a.3.3,0,0,0,.14-.26.29.29,0,0,0-.12-.25.67.67,0,0,0-.39-.08h-.48V16Z"/><rect class="cls-1" y="10.65" width="1.32" height="26.7" rx="0.66"/><rect class="cls-1" x="37.35" y="10.65" width="1.32" height="26.7" rx="0.66"/><rect class="cls-1" x="9.34" y="5.39" width="1.32" height="37.28" rx="0.66"/><rect class="cls-1" x="28.01" y="5.39" width="1.32" height="37.35" rx="0.66"/><rect class="cls-1" x="18.67" width="1.32" height="48" rx="0.66"/><rect class="cls-2" x="6.64" y="5.33" width="6.71" height="37.35" rx="3.35"/><rect class="cls-3" x="25.32" y="31.76" width="6.71" height="11.05" rx="3.35"/><rect class="cls-4" x="25.32" y="5.33" width="6.71" height="16.04" rx="3.35"/><rect class="cls-5" x="15.98" y="16.64" width="6.71" height="16.31" rx="3.35"/></svg>
