<?xml version="1.0" encoding="UTF-8"?>
<!DOCTYPE svg PUBLIC "-//W3C//DTD SVG 1.1//EN" "http://www.w3.org/Graphics/SVG/1.1/DTD/svg11.dtd">
<!-- Creator: CorelDRAW -->
<svg xmlns="http://www.w3.org/2000/svg" xml:space="preserve" width="17.6933mm" height="16.6092mm" version="1.1" style="shape-rendering:geometricPrecision; text-rendering:geometricPrecision; image-rendering:optimizeQuality; fill-rule:evenodd; clip-rule:evenodd"
viewBox="0 0 2100.04 1971.37"
 xmlns:xlink="http://www.w3.org/1999/xlink"
 xmlns:xodm="http://www.corel.com/coreldraw/odm/2003">
 <defs>
  <style type="text/css">
   <![CDATA[
    .str1 {stroke:#2B2A29;stroke-width:59.35;stroke-miterlimit:22.9256}
    .str0 {stroke:#2B2A29;stroke-width:59.35;stroke-linejoin:round;stroke-miterlimit:22.9256}
    .fil0 {fill:none}
   ]]>
  </style>
 </defs>
 <g id="Ebene_x0020_2">
  <metadata id="CorelCorpID_0Corel-Layer"/>
  <polygon class="fil0 str0" points="1041.05,29.68 1135.92,231.63 1357.31,259.46 1194.57,412.08 1236.5,631.22 1041.05,523.62 845.6,631.22 887.54,412.08 724.8,259.46 946.18,231.63 "/>
  <polygon class="fil0 str0" points="1500.06,329.45 1555.21,446.85 1683.91,463.03 1589.3,551.76 1613.68,679.15 1500.06,616.59 1386.43,679.15 1410.81,551.76 1316.2,463.03 1444.9,446.85 "/>
  <polygon class="fil0 str0" points="1886.53,506.1 1941.68,623.5 2070.38,639.67 1975.77,728.41 2000.15,855.8 1886.53,793.24 1772.9,855.8 1797.28,728.41 1702.67,639.67 1831.37,623.5 "/>
  <polygon class="fil0 str0" points="608.13,329.45 663.28,446.85 791.98,463.03 697.37,551.76 721.75,679.15 608.13,616.59 494.5,679.15 518.88,551.76 424.27,463.03 552.97,446.85 "/>
  <polygon class="fil0 str0" points="213.51,506.1 268.67,623.5 397.37,639.67 302.76,728.41 327.14,855.8 213.51,793.24 99.89,855.8 124.27,728.41 29.66,639.67 158.36,623.5 "/>
  <path class="fil0 str1" d="M443.55 1358.05l122.98 0c29.53,0 53.68,24.15 53.68,53.68l0 476.27c0,29.53 -24.15,53.68 -53.68,53.68l-122.98 0c-29.53,0 -53.68,-24.15 -53.68,-53.68l0 -476.27c0,-29.53 24.15,-53.68 53.68,-53.68z"/>
  <path class="fil0 str1" d="M1181.44 1938.7l-416.57 0c-30.47,0 -56.33,-25.44 -56.33,-55.89l0 -547.29c0,-70.98 77.77,-123.02 163.11,-206.12 40.68,-39.61 78.59,-61.15 103.87,-112 29,-58.35 -42.79,-197.41 56,-209.54 91.43,-11.22 108.6,70.29 125.54,130.96 18.97,67.94 19.47,140.42 -33.39,209.37 -32.46,42.34 -99.13,130.38 -52.39,130.06l238.87 -1.64 96.65 0c47.94,0 87.15,39.22 87.15,87.15l0 0c0,47.94 -39.22,87.15 -84.9,87.15 47.73,0 84.9,37.17 84.9,82.63l0 0.01c0,45.46 -37.17,82.63 -82.63,82.63l-26.65 0c45.21,0 82.18,36.97 82.18,82.18l0 0.01c0,45.2 -36.98,82.18 -82.18,82.18l-36.38 0c43.35,0 78.81,35.46 78.81,78.81l0 0.01c0,43.35 -35.46,78.69 -78.81,78.81l-166.84 0.47"/>
 </g>
</svg>
